<svg xmlns="http://www.w3.org/2000/svg" width="256" height="256"><path fill-opacity=".016" d="M0 128.004v128.004l128.25-.254 128.25-.254.254-127.75L257.008 0H0v128.004m.485.496c0 70.4.119 99.053.265 63.672.146-35.38.146-92.98 0-128C.604 29.153.485 58.1.485 128.5" fill="#1976D2" fill-rule="evenodd"/><path fill-opacity=".075" d="M108.5 5.474C60.478 13.132 22.08 46.036 7.571 91.963c-4.749 15.034-5.842 25.21-5.216 48.537.788 29.384 4.521 54.008 12.265 80.915 4.908 17.053 4.602 16.611 13.38 19.312 28.369 8.729 57.356 13.709 86.789 14.912 27.466 1.122 45.962-2.371 66.711-12.599 26.301-12.966 45.297-32.114 58.074-58.54 16.445-34.009 16.604-74.276.429-108.25-4.266-8.959-5.195-10.25-7.377-10.25-8.483 0-16.546-8.741-16.604-18L216 44.5h-7.41c-6.64 0-7.861-.316-11.75-3.044-5.409-3.794-8.815-9.815-9.543-16.866l-.559-5.422-8.805-4.09C157.431 5.552 130.966 1.891 108.5 5.474m92.68 3.151c-10.292 5.247-12.229 19.734-3.646 27.27 6.525 5.73 14.88 5.905 20.701.435 10.774-10.125 5.205-27.862-9.113-29.023-3.016-.245-5.775.213-7.942 1.318m30.743 4.298C225.578 19.269 229.885 30 238.777 30c4.503 0 8.734-3.204 9.791-7.415 2.463-9.813-9.532-16.775-16.645-9.662m-5.05 23.761c-7.952 4.935-7.765 18.479.317 22.963 5.849 3.246 14.148.375 17.14-5.93 2.054-4.329 2.105-6.974.206-10.648-3.74-7.231-11.677-10.101-17.663-6.385m-112.07 24.395C86.015 65.301 61.097 87.748 55.499 114.5c-1.876 8.97-1.878 26.016-.004 35 .804 3.85 3.521 11.173 6.038 16.273 7.22 14.628 20.765 27.046 36.079 33.076 23.239 9.151 57.187 5.576 78.89-8.307l5.498-3.517v-56.9h-27v20.315c0 15.038-.325 20.582-1.25 21.342-3.701 3.041-12.498 4.718-24.75 4.718-11.976 0-12.782-.133-19.223-3.185-9.344-4.426-15.996-10.956-20.551-20.173l-3.726-7.538v-13.552c0-13.159.092-13.747 3.185-20.275 8.122-17.145 22.787-25.404 43.695-24.609 8.796.334 10.994.795 16.8 3.523 3.673 1.726 8.73 5.028 11.236 7.338l4.557 4.201 6.764-6.026c3.719-3.314 8.243-7.567 10.051-9.452l3.289-3.426-4.543-4.188c-16.484-15.194-40.421-21.77-65.731-18.059" fill="#1976D2" fill-rule="evenodd"/><path fill-opacity=".168" d="M104.922 6.552c-33.057 5.986-62.923 25.587-81.495 53.484C7.67 83.705.808 110.336 2.437 141.5c1.707 32.678 6.381 60.052 15.041 88.088l2.498 8.087 10.262 3.151c14.115 4.333 33.583 8.677 50.262 11.215 17.69 2.691 52.489 3.776 64.553 2.012 25.318-3.702 48.673-15.156 67.353-33.031 19.851-18.995 32.369-42.109 37.114-68.526 2.109-11.748 2.114-33.216.01-44.93-2.044-11.384-6.615-25.116-11.337-34.066-3.52-6.672-3.888-7.026-7.841-7.554-8.128-1.085-14.468-8.64-14.6-17.4l-.065-4.265-3.593.834c-11.982 2.782-25.06-7.828-25.085-20.351L187 20.029l-6.027-3.043c-8.478-4.279-21.936-8.62-32.358-10.438-10.901-1.901-33.185-1.899-43.693.004m96.038 2.751c-4.919 2.601-8.96 8.979-8.96 14.142 0 4.103 3.794 11.423 7.209 13.911 1.59 1.158 4.893 2.148 8 2.397 6.764.543 11.293-2.244 14.653-9.016 1.909-3.848 2.231-5.629 1.682-9.291C222.428 14.002 214.743 7 207.689 7c-1.306 0-4.334 1.036-6.729 2.303m32.79 1.777c-3.914 2.28-5.929 9.848-3.72 13.975 1.288 2.408 6.082 4.945 9.344 4.945 3.299 0 8.26-4.306 8.916-7.739.673-3.516-1.405-8.528-4.407-10.63-2.61-1.828-7.485-2.093-10.133-.551m-6.451 25.88c-6.315 3.85-8.128 12.03-4.019 18.128 4.778 7.089 12.748 7.732 18.469 1.488 2.739-2.988 3.251-4.315 3.251-8.426 0-5.469-2.245-9.191-7.039-11.67-3.851-1.992-6.829-1.858-10.662.48M109.364 61.436C83.414 67.323 62.129 87.269 55.405 112c-2.48 9.122-2.503 31.04-.042 39.92 7.826 28.234 31.489 48.35 61.314 52.121 20.199 2.554 43.931-2.692 60.7-13.419l5.623-3.597V130h-29v40.949l-3.086 1.596c-1.698.877-6.085 2.231-9.75 3.008-32.786 6.949-58.283-14.834-55.817-47.686 1.721-22.942 17.377-38.551 40.653-40.535 12.393-1.055 23.959 2.626 34.035 10.832l5.523 4.499 9.861-9.212c9.489-8.863 9.805-9.293 8.341-11.383-4.602-6.571-17.747-14.993-29.26-18.748-6.933-2.261-10.068-2.653-23.5-2.943-10.741-.231-17.384.094-21.636 1.059" fill="#1976D2" fill-rule="evenodd"/><path fill-opacity=".275" d="M200.304 9.956c-11.413 6.959-9.363 24.899 3.324 29.086 6.648 2.194 14.782-1.171 17.702-7.325 2.299-4.845 2.15-12.418-.325-16.476-4.221-6.925-13.942-9.406-20.701-5.285m32.485 2.942c-7.754 6.928-.94 19.287 8.852 16.055 4.167-1.375 6.359-4.388 6.359-8.741 0-4.393-1.409-6.855-4.98-8.702-4.241-2.193-6.579-1.875-10.231 1.388M110.46 25.377c-36.281 5.958-68.149 32.191-81.191 66.837-5.945 15.789-6.722 20.484-6.67 40.286.043 16.278.303 18.954 2.724 27.977 1.472 5.487 4.911 14.551 7.642 20.142 26.103 53.442 87.127 74.978 138.812 48.988 20.246-10.182 36.68-26.803 47.338-47.88 4.228-8.36 4.049-9.219-1.78-8.552-2.396.275-3.469 1.511-6.941 7.996-5.534 10.334-9.828 15.991-18.552 24.438-13.14 12.722-28.876 21.269-46.325 25.161-10.673 2.38-29.832 2.082-40.957-.637-51.691-12.636-84.189-65.693-73.028-119.226 8.262-39.629 38.922-70.148 77.968-77.611 11.01-2.104 31.218-1.294 41.433 1.662 26.231 7.59 48.462 26.004 60.676 50.259 3.36 6.672 3.481 6.783 7.404 6.783 2.193 0 3.987-.35 3.987-.778 0-.427-1.819-4.335-4.043-8.683-17.961-35.12-50.774-56.536-88.912-58.03-7.055-.276-14.672.061-19.585.868m119.798 10.328c-1.232.237-3.578 1.769-5.212 3.402-9.474 9.475.204 25.576 12.329 20.51 10.156-4.244 9.893-18.892-.414-23.016-2.201-.881-4.105-1.54-4.231-1.465-.127.075-1.239.331-2.472.569M27.5 220v10h20.962L38.5 220c-5.479-5.5-10.196-10-10.481-10-.286 0-.519 4.5-.519 10" fill="#1976D2" fill-rule="evenodd"/></svg>